<svg width="32" height="34" viewBox="0 0 32 34" fill="none" xmlns="http://www.w3.org/2000/svg">
<path d="M11 19.0259L12.41 20.4359L15 17.8559V30.0259H17V17.8559L19.59 20.4359L21 19.0259L16 14.0259L11 19.0259Z" fill="#525965"/>
<path d="M23.4998 23.026H22.9998V21.026H23.4998C24.6932 21.0736 25.8568 20.6454 26.7346 19.8352C27.6122 19.025 28.132 17.8994 28.1798 16.7059C28.2276 15.5125 27.7992 14.3489 26.989 13.4712C26.179 12.5936 25.0532 12.0737 23.8598 12.0259H22.9998L22.8998 11.2059C22.678 9.52237 21.8516 7.97687 20.575 6.85731C19.2982 5.73775 17.658 5.12047 15.9599 5.12047C14.2617 5.12047 12.6215 5.73775 11.3448 6.85731C10.068 7.97687 9.24171 9.52237 9.01987 11.2059L8.99987 12.0259H8.13987C6.94639 12.0737 5.82075 12.5936 5.01061 13.4712C4.20045 14.3489 3.77213 15.5125 3.81987 16.7059C3.86759 17.8994 4.38749 19.025 5.26515 19.8352C6.14283 20.6454 7.30639 21.0736 8.49987 21.026H8.99987V23.026H8.49987C6.89627 23.0158 5.35303 22.4132 4.16685 21.334C2.98067 20.2548 2.23527 18.7753 2.07399 17.1798C1.9127 15.5843 2.34691 13.9855 3.29311 12.6908C4.23933 11.3961 5.63075 10.4968 7.19987 10.1659C7.63157 8.15245 8.74069 6.34791 10.3422 5.05339C11.9436 3.75889 13.9406 3.05273 15.9999 3.05273C18.0591 3.05273 20.056 3.75889 21.6574 5.05339C23.259 6.34791 24.3682 8.15245 24.7998 10.1659C26.369 10.4968 27.7604 11.3961 28.7066 12.6908C29.6528 13.9855 30.087 15.5843 29.9256 17.1798C29.7644 18.7753 29.019 20.2548 27.8328 21.334C26.6466 22.4132 25.1034 23.0158 23.4998 23.026Z" fill="#525965"/>
</svg>
