<svg width="24" height="24" viewBox="0 0 24 24" fill="none" xmlns="http://www.w3.org/2000/svg">
<path d="M12.75 12.75H16.6066C16.789 13.457 17.2233 14.0731 17.8276 14.483C18.4318 14.8928 19.1649 15.0681 19.8894 14.9761C20.6137 14.8841 21.2796 14.5311 21.7623 13.9832C22.245 13.4353 22.5112 12.7302 22.5112 12C22.5112 11.2698 22.245 10.5647 21.7623 10.0168C21.2796 9.46896 20.6137 9.11592 19.8894 9.02392C19.1649 8.93191 18.4318 9.10725 17.8276 9.51705C17.2233 9.92686 16.789 10.543 16.6066 11.25H12.75V5.25H16.6066C16.789 5.95699 17.2233 6.57315 17.8276 6.98296C18.4318 7.39276 19.1649 7.5681 19.8894 7.47609C20.6137 7.38409 21.2796 7.03105 21.7623 6.48318C22.245 5.9353 22.5112 5.23018 22.5112 4.5C22.5112 3.76983 22.245 3.06471 21.7623 2.51683C21.2796 1.96896 20.6137 1.61592 19.8894 1.52392C19.1649 1.43191 18.4318 1.60725 17.8276 2.01705C17.2233 2.42686 16.789 3.04302 16.6066 3.75H12.75C12.3523 3.75046 11.971 3.90864 11.6898 4.18984C11.4086 4.47105 11.2505 4.85232 11.25 5.25V11.25H7.39341C7.21088 10.543 6.77675 9.92686 6.17241 9.51705C5.56808 9.10725 4.83503 8.93191 4.11066 9.02392C3.38631 9.11592 2.72037 9.46896 2.23767 10.0168C1.75499 10.5647 1.48868 11.2698 1.48868 12C1.48868 12.7302 1.75499 13.4353 2.23767 13.9832C2.72037 14.5311 3.38631 14.8841 4.11066 14.9761C4.83503 15.0681 5.56808 14.8928 6.17241 14.483C6.77675 14.0731 7.21088 13.457 7.39341 12.75H11.25V18.75C11.2505 19.1476 11.4086 19.5289 11.6898 19.8102C11.971 20.0913 12.3523 20.2495 12.75 20.25H16.6066C16.789 20.9569 17.2233 21.5731 17.8276 21.9829C18.4318 22.3927 19.1649 22.5681 19.8894 22.4761C20.6137 22.384 21.2796 22.0311 21.7623 21.4831C22.245 20.9353 22.5112 20.2302 22.5112 19.5C22.5112 18.7698 22.245 18.0646 21.7623 17.5168C21.2796 16.9689 20.6137 16.6159 19.8894 16.5238C19.1649 16.4319 18.4318 16.6072 17.8276 17.017C17.2233 17.4268 16.789 18.043 16.6066 18.75H12.75V12.75ZM19.5 10.5C19.7967 10.5 20.0866 10.588 20.3334 10.7528C20.58 10.9176 20.7723 11.1519 20.8858 11.426C20.9994 11.7001 21.0291 12.0017 20.9712 12.2926C20.9133 12.5836 20.7705 12.8509 20.5606 13.0607C20.3509 13.2704 20.0836 13.4133 19.7926 13.4712C19.5016 13.5291 19.2 13.4994 18.9259 13.3858C18.6519 13.2723 18.4176 13.08 18.2527 12.8334C18.088 12.5867 18 12.2967 18 12C18.0004 11.6023 18.1587 11.221 18.4398 10.9398C18.721 10.6586 19.1023 10.5005 19.5 10.5ZM19.5 3C19.7967 3 20.0866 3.08797 20.3334 3.25281C20.58 3.41763 20.7723 3.6519 20.8858 3.92598C20.9994 4.20007 21.0291 4.50166 20.9712 4.79265C20.9133 5.08362 20.7705 5.35089 20.5606 5.56066C20.3509 5.77044 20.0836 5.9133 19.7926 5.97118C19.5016 6.02907 19.2 5.99935 18.9259 5.88582C18.6519 5.7723 18.4176 5.58003 18.2527 5.33335C18.088 5.08669 18 4.79668 18 4.5C18.0004 4.10232 18.1587 3.72105 18.4398 3.43984C18.721 3.15864 19.1023 3.00046 19.5 3ZM4.49999 13.5C4.20332 13.5 3.91331 13.412 3.66663 13.2472C3.41996 13.0824 3.2277 12.8481 3.11416 12.574C3.00064 12.2999 2.97093 11.9983 3.02882 11.7074C3.08669 11.4164 3.22955 11.1491 3.43934 10.9393C3.64911 10.7296 3.91638 10.5867 4.20735 10.5288C4.49832 10.4709 4.79993 10.5007 5.07402 10.6142C5.3481 10.7277 5.58237 10.92 5.74719 11.1666C5.91201 11.4133 5.99999 11.7033 5.99999 12C5.99954 12.3977 5.84134 12.779 5.56014 13.0602C5.27893 13.3414 4.89768 13.4995 4.49999 13.5ZM19.5 18C19.7967 18 20.0866 18.088 20.3334 18.2527C20.58 18.4176 20.7723 18.6519 20.8858 18.9259C20.9994 19.2 21.0291 19.5016 20.9712 19.7926C20.9133 20.0836 20.7705 20.3509 20.5606 20.5606C20.3509 20.7705 20.0836 20.9133 19.7926 20.9712C19.5016 21.0291 19.2 20.9994 18.9259 20.8858C18.6519 20.7723 18.4176 20.58 18.2527 20.3334C18.088 20.0866 18 19.7967 18 19.5C18.0004 19.1023 18.1587 18.721 18.4398 18.4398C18.721 18.1587 19.1023 18.0004 19.5 18Z" fill="#525965"/>
</svg>
