<svg width="24" height="24" viewBox="0 0 24 24" fill="none" xmlns="http://www.w3.org/2000/svg">
<path d="M7.5 12C8.32842 12 9 11.3284 9 10.5C9 9.67158 8.32842 9 7.5 9C6.67158 9 6 9.67158 6 10.5C6 11.3284 6.67158 12 7.5 12Z" fill="#525965"/>
<path d="M12 22.5C11.9013 22.5006 11.8035 22.4817 11.7121 22.4444C11.6207 22.407 11.5376 22.3519 11.4675 22.2825L3.4425 14.25C3.16082 13.97 3.00168 13.5897 3 13.1925V7.5C3 7.10217 3.15804 6.72065 3.43934 6.43934C3.72065 6.15804 4.10217 6 4.5 6H10.1925C10.5897 6.00168 10.97 6.16082 11.25 6.4425L19.2825 14.4675C19.3528 14.5372 19.4087 14.6202 19.4466 14.7116C19.4847 14.803 19.5044 14.901 19.5044 15C19.5044 15.099 19.4847 15.1971 19.4466 15.2885C19.4087 15.3798 19.3528 15.4628 19.2825 15.5325L12.5325 22.2825C12.4624 22.3519 12.3793 22.407 12.2879 22.4444C12.1965 22.4817 12.0987 22.5006 12 22.5ZM4.5 7.5V13.1925L12 20.6925L17.6925 15L10.1925 7.5H4.5Z" fill="#525965"/>
<path d="M20.7825 9.9675L12.75 1.9425C12.47 1.66081 12.0897 1.50168 11.6925 1.5H6C5.60217 1.5 5.22065 1.65804 4.93934 1.93933C4.65804 2.22064 4.5 2.60217 4.5 3V4.5H6V3H11.6925L19.1925 10.5L18.2175 11.4675L19.2825 12.5325L20.7825 11.0325C20.8528 10.9628 20.9087 10.8798 20.9466 10.7884C20.9847 10.697 21.0044 10.599 21.0044 10.5C21.0044 10.401 20.9847 10.303 20.9466 10.2116C20.9087 10.1202 20.8528 10.0372 20.7825 9.9675Z" fill="#525965"/>
</svg>
