<svg width="24" height="24" viewBox="0 0 24 24" fill="none" xmlns="http://www.w3.org/2000/svg">
<path d="M6.75 15.75H2.25C1.4229 15.75 0.75 15.0771 0.75 14.25V9.75C0.75 8.9229 1.4229 8.25 2.25 8.25H6.75C7.5771 8.25 8.25 8.9229 8.25 9.75V14.25C8.25 15.0771 7.5771 15.75 6.75 15.75ZM2.25 9.75V14.25H6.75V9.75H2.25Z" fill="#525965"/>
<path d="M8.76946 21.9934C6.46029 21.2476 4.46499 19.7067 3.15106 17.6545L4.41451 16.8457C5.54116 18.6057 7.25154 19.9269 9.23056 20.5662L8.76946 21.9934Z" fill="#525965"/>
<path d="M14.25 21C14.6642 21 15 20.6641 15 20.25C15 19.8359 14.6642 19.5 14.25 19.5C13.8358 19.5 13.5 19.8359 13.5 20.25C13.5 20.6641 13.8358 21 14.25 21Z" fill="#525965"/>
<path d="M21.75 23.25H12C11.1729 23.25 10.5 22.5771 10.5 21.75V18.75C10.5 17.9229 11.1729 17.25 12 17.25H21.75C22.5771 17.25 23.25 17.9229 23.25 18.75V21.75C23.25 22.5771 22.5771 23.25 21.75 23.25ZM12 18.75V21.75H21.75V18.75H12Z" fill="#525965"/>
<path d="M20.1672 15.75H21.8058C22.26 14.5583 22.5 13.2825 22.5 12C22.5 11.4961 22.4517 10.9962 22.3806 10.5H20.8604C20.9433 10.9944 20.9999 11.4947 20.9999 12C20.9999 13.3162 20.7101 14.5723 20.1672 15.75Z" fill="#525965"/>
<path d="M19.125 9H14.25C13.8359 9 13.5 8.66415 13.5 8.25V3C13.5 2.58585 13.8359 2.25 14.25 2.25H23.25C23.5371 2.25 23.799 2.41388 23.9246 2.67218C23.9751 2.77635 24 2.88848 24 3C24 3.165 23.9455 3.32865 23.8398 3.46335L19.7148 8.71335C19.5726 8.89432 19.3552 9 19.125 9ZM15 7.5H18.7605L21.707 3.75H15V7.5Z" fill="#525965"/>
<path d="M4.41451 7.1544L3.15106 6.3456C5.09364 3.31148 8.40159 1.5 12 1.5V3C8.91564 3 6.07981 4.55303 4.41451 7.1544Z" fill="#525965"/>
</svg>
