<svg width="24" height="24" viewBox="0 0 24 24" fill="none" xmlns="http://www.w3.org/2000/svg">
<path d="M19.5 18V21H4.5V18H3V21L3.0057 20.9964C3.00499 21.1932 3.0431 21.3883 3.11781 21.5704C3.19254 21.7525 3.30245 21.9182 3.44121 22.0578C3.57999 22.1975 3.74493 22.3085 3.92661 22.3844C4.10827 22.4601 4.30313 22.4995 4.5 22.5H19.5C19.8978 22.5 20.2794 22.3419 20.5606 22.0606C20.8419 21.7794 21 21.3978 21 21V18H19.5Z" fill="#525965"/>
<path d="M4.5 9L5.55825 10.0537L11.25 4.36875V18H12.75V4.36875L18.4432 10.0537L19.5 9L12 1.5L4.5 9Z" fill="#525965"/>
</svg>
